<mxfile host="app.diagrams.net" modified="2023-05-30T23:33:40.150Z" agent="Mozilla/5.0 (Windows NT 10.0; Win64; x64) AppleWebKit/537.36 (KHTML, like Gecko) Chrome/111.0.0.0 Safari/537.36" etag="fu8GmnjMKiOtMhZlY-4F" version="21.3.5" type="google">
  <diagram id="C5RBs43oDa-KdzZeNtuy" name="Page-1">
    <mxGraphModel grid="0" page="0" gridSize="10" guides="1" tooltips="1" connect="1" arrows="1" fold="1" pageScale="1" pageWidth="827" pageHeight="1169" math="0" shadow="0">
      <root>
        <mxCell id="WIyWlLk6GJQsqaUBKTNV-0" />
        <mxCell id="WIyWlLk6GJQsqaUBKTNV-1" parent="WIyWlLk6GJQsqaUBKTNV-0" />
        <mxCell id="2N-X7fBch58RBfS6cuom-87" style="edgeStyle=orthogonalEdgeStyle;rounded=0;orthogonalLoop=1;jettySize=auto;html=1;endArrow=diamond;endFill=0;endSize=9;fontSize=13;" edge="1" parent="WIyWlLk6GJQsqaUBKTNV-1" source="zkfFHV4jXpPFQw0GAbJ--0" target="2N-X7fBch58RBfS6cuom-7">
          <mxGeometry relative="1" as="geometry" />
        </mxCell>
        <mxCell id="zkfFHV4jXpPFQw0GAbJ--0" value="Employees" style="swimlane;fontStyle=0;align=center;verticalAlign=top;childLayout=stackLayout;horizontal=1;startSize=26;horizontalStack=0;resizeParent=1;resizeLast=0;collapsible=1;marginBottom=0;rounded=0;shadow=0;strokeWidth=1;fontSize=13;" vertex="1" parent="WIyWlLk6GJQsqaUBKTNV-1">
          <mxGeometry x="-342.5" y="-616" width="241" height="556" as="geometry">
            <mxRectangle x="230" y="140" width="160" height="26" as="alternateBounds" />
          </mxGeometry>
        </mxCell>
        <mxCell id="zkfFHV4jXpPFQw0GAbJ--5" value="- TimeJoined : Date" style="text;align=left;verticalAlign=top;spacingLeft=4;spacingRight=4;overflow=hidden;rotatable=0;points=[[0,0.5],[1,0.5]];portConstraint=eastwest;fontSize=13;" vertex="1" parent="zkfFHV4jXpPFQw0GAbJ--0">
          <mxGeometry y="26" width="241" height="26" as="geometry" />
        </mxCell>
        <mxCell id="nPpdYYNUiPZGZsYf6FRK-1" value="- ID : Int" style="text;align=left;verticalAlign=top;spacingLeft=4;spacingRight=4;overflow=hidden;rotatable=0;points=[[0,0.5],[1,0.5]];portConstraint=eastwest;rounded=0;shadow=0;html=0;fontSize=13;" vertex="1" parent="zkfFHV4jXpPFQw0GAbJ--0">
          <mxGeometry y="52" width="241" height="26" as="geometry" />
        </mxCell>
        <mxCell id="zkfFHV4jXpPFQw0GAbJ--1" value="- Name : String" style="text;align=left;verticalAlign=top;spacingLeft=4;spacingRight=4;overflow=hidden;rotatable=0;points=[[0,0.5],[1,0.5]];portConstraint=eastwest;fontSize=13;" vertex="1" parent="zkfFHV4jXpPFQw0GAbJ--0">
          <mxGeometry y="78" width="241" height="26" as="geometry" />
        </mxCell>
        <mxCell id="nPpdYYNUiPZGZsYf6FRK-4" value="- Birthday : String" style="text;align=left;verticalAlign=top;spacingLeft=4;spacingRight=4;overflow=hidden;rotatable=0;points=[[0,0.5],[1,0.5]];portConstraint=eastwest;rounded=0;shadow=0;html=0;fontSize=13;" vertex="1" parent="zkfFHV4jXpPFQw0GAbJ--0">
          <mxGeometry y="104" width="241" height="26" as="geometry" />
        </mxCell>
        <mxCell id="zkfFHV4jXpPFQw0GAbJ--2" value="- Age : Int" style="text;align=left;verticalAlign=top;spacingLeft=4;spacingRight=4;overflow=hidden;rotatable=0;points=[[0,0.5],[1,0.5]];portConstraint=eastwest;rounded=0;shadow=0;html=0;fontSize=13;" vertex="1" parent="zkfFHV4jXpPFQw0GAbJ--0">
          <mxGeometry y="130" width="241" height="26" as="geometry" />
        </mxCell>
        <mxCell id="nPpdYYNUiPZGZsYf6FRK-3" value="- Sex : String" style="text;align=left;verticalAlign=top;spacingLeft=4;spacingRight=4;overflow=hidden;rotatable=0;points=[[0,0.5],[1,0.5]];portConstraint=eastwest;rounded=0;shadow=0;html=0;fontSize=13;" vertex="1" parent="zkfFHV4jXpPFQw0GAbJ--0">
          <mxGeometry y="156" width="241" height="26" as="geometry" />
        </mxCell>
        <mxCell id="nPpdYYNUiPZGZsYf6FRK-11" value="- Hometown : String" style="text;align=left;verticalAlign=top;spacingLeft=4;spacingRight=4;overflow=hidden;rotatable=0;points=[[0,0.5],[1,0.5]];portConstraint=eastwest;rounded=0;shadow=0;html=0;fontSize=13;" vertex="1" parent="zkfFHV4jXpPFQw0GAbJ--0">
          <mxGeometry y="182" width="241" height="26" as="geometry" />
        </mxCell>
        <mxCell id="zkfFHV4jXpPFQw0GAbJ--3" value="- Phone : String" style="text;align=left;verticalAlign=top;spacingLeft=4;spacingRight=4;overflow=hidden;rotatable=0;points=[[0,0.5],[1,0.5]];portConstraint=eastwest;rounded=0;shadow=0;html=0;fontSize=13;" vertex="1" parent="zkfFHV4jXpPFQw0GAbJ--0">
          <mxGeometry y="208" width="241" height="26" as="geometry" />
        </mxCell>
        <mxCell id="nPpdYYNUiPZGZsYf6FRK-5" value="- Status : Int" style="text;align=left;verticalAlign=top;spacingLeft=4;spacingRight=4;overflow=hidden;rotatable=0;points=[[0,0.5],[1,0.5]];portConstraint=eastwest;rounded=0;shadow=0;html=0;fontSize=13;" vertex="1" parent="zkfFHV4jXpPFQw0GAbJ--0">
          <mxGeometry y="234" width="241" height="26" as="geometry" />
        </mxCell>
        <mxCell id="JL3dmOGRTkGGPlSlM7aD-33" value="- PositionID : Int" style="text;align=left;verticalAlign=top;spacingLeft=4;spacingRight=4;overflow=hidden;rotatable=0;points=[[0,0.5],[1,0.5]];portConstraint=eastwest;rounded=0;shadow=0;html=0;fontSize=13;" vertex="1" parent="zkfFHV4jXpPFQw0GAbJ--0">
          <mxGeometry y="260" width="241" height="26" as="geometry" />
        </mxCell>
        <mxCell id="zkfFHV4jXpPFQw0GAbJ--4" value="" style="line;html=1;strokeWidth=1;align=left;verticalAlign=middle;spacingTop=-1;spacingLeft=3;spacingRight=3;rotatable=0;labelPosition=right;points=[];portConstraint=eastwest;fontSize=13;" vertex="1" parent="zkfFHV4jXpPFQw0GAbJ--0">
          <mxGeometry y="286" width="241" height="10" as="geometry" />
        </mxCell>
        <mxCell id="nPpdYYNUiPZGZsYf6FRK-6" value="+ Name : String" style="text;align=left;verticalAlign=top;spacingLeft=4;spacingRight=4;overflow=hidden;rotatable=0;points=[[0,0.5],[1,0.5]];portConstraint=eastwest;rounded=0;shadow=0;html=0;fontSize=13;" vertex="1" parent="zkfFHV4jXpPFQw0GAbJ--0">
          <mxGeometry y="296" width="241" height="26" as="geometry" />
        </mxCell>
        <mxCell id="nPpdYYNUiPZGZsYf6FRK-17" value="+ Status : Int" style="text;align=left;verticalAlign=top;spacingLeft=4;spacingRight=4;overflow=hidden;rotatable=0;points=[[0,0.5],[1,0.5]];portConstraint=eastwest;rounded=0;shadow=0;html=0;fontSize=13;" vertex="1" parent="zkfFHV4jXpPFQw0GAbJ--0">
          <mxGeometry y="322" width="241" height="26" as="geometry" />
        </mxCell>
        <mxCell id="nPpdYYNUiPZGZsYf6FRK-8" value="+ Sex : Int" style="text;align=left;verticalAlign=top;spacingLeft=4;spacingRight=4;overflow=hidden;rotatable=0;points=[[0,0.5],[1,0.5]];portConstraint=eastwest;rounded=0;shadow=0;html=0;fontSize=13;" vertex="1" parent="zkfFHV4jXpPFQw0GAbJ--0">
          <mxGeometry y="348" width="241" height="26" as="geometry" />
        </mxCell>
        <mxCell id="nPpdYYNUiPZGZsYf6FRK-10" value="+ Hometown : String" style="text;align=left;verticalAlign=top;spacingLeft=4;spacingRight=4;overflow=hidden;rotatable=0;points=[[0,0.5],[1,0.5]];portConstraint=eastwest;rounded=0;shadow=0;html=0;fontSize=13;" vertex="1" parent="zkfFHV4jXpPFQw0GAbJ--0">
          <mxGeometry y="374" width="241" height="26" as="geometry" />
        </mxCell>
        <mxCell id="nPpdYYNUiPZGZsYf6FRK-9" value="+ Birthday : String" style="text;align=left;verticalAlign=top;spacingLeft=4;spacingRight=4;overflow=hidden;rotatable=0;points=[[0,0.5],[1,0.5]];portConstraint=eastwest;rounded=0;shadow=0;html=0;fontSize=13;" vertex="1" parent="zkfFHV4jXpPFQw0GAbJ--0">
          <mxGeometry y="400" width="241" height="26" as="geometry" />
        </mxCell>
        <mxCell id="nPpdYYNUiPZGZsYf6FRK-13" value="+ Age : Int" style="text;align=left;verticalAlign=top;spacingLeft=4;spacingRight=4;overflow=hidden;rotatable=0;points=[[0,0.5],[1,0.5]];portConstraint=eastwest;rounded=0;shadow=0;html=0;fontSize=13;" vertex="1" parent="zkfFHV4jXpPFQw0GAbJ--0">
          <mxGeometry y="426" width="241" height="26" as="geometry" />
        </mxCell>
        <mxCell id="nPpdYYNUiPZGZsYf6FRK-14" value="+ Phone : String" style="text;align=left;verticalAlign=top;spacingLeft=4;spacingRight=4;overflow=hidden;rotatable=0;points=[[0,0.5],[1,0.5]];portConstraint=eastwest;rounded=0;shadow=0;html=0;fontSize=13;" vertex="1" parent="zkfFHV4jXpPFQw0GAbJ--0">
          <mxGeometry y="452" width="241" height="26" as="geometry" />
        </mxCell>
        <mxCell id="nPpdYYNUiPZGZsYf6FRK-15" value="+ TimeJoined : Date" style="text;align=left;verticalAlign=top;spacingLeft=4;spacingRight=4;overflow=hidden;rotatable=0;points=[[0,0.5],[1,0.5]];portConstraint=eastwest;fontSize=13;" vertex="1" parent="zkfFHV4jXpPFQw0GAbJ--0">
          <mxGeometry y="478" width="241" height="26" as="geometry" />
        </mxCell>
        <mxCell id="2N-X7fBch58RBfS6cuom-24" value="+ AutoSetTimeJoin() : void" style="text;align=left;verticalAlign=top;spacingLeft=4;spacingRight=4;overflow=hidden;rotatable=0;points=[[0,0.5],[1,0.5]];portConstraint=eastwest;rounded=0;shadow=0;html=0;fontSize=13;" vertex="1" parent="zkfFHV4jXpPFQw0GAbJ--0">
          <mxGeometry y="504" width="241" height="26" as="geometry" />
        </mxCell>
        <mxCell id="2N-X7fBch58RBfS6cuom-75" value="+ AutoCaculatorAge() : void" style="text;align=left;verticalAlign=top;spacingLeft=4;spacingRight=4;overflow=hidden;rotatable=0;points=[[0,0.5],[1,0.5]];portConstraint=eastwest;rounded=0;shadow=0;html=0;fontSize=13;" vertex="1" parent="zkfFHV4jXpPFQw0GAbJ--0">
          <mxGeometry y="530" width="241" height="26" as="geometry" />
        </mxCell>
        <mxCell id="2N-X7fBch58RBfS6cuom-88" style="edgeStyle=orthogonalEdgeStyle;rounded=0;orthogonalLoop=1;jettySize=auto;html=1;endSize=9;endArrow=diamond;endFill=0;fontSize=13;" edge="1" parent="WIyWlLk6GJQsqaUBKTNV-1" source="nPpdYYNUiPZGZsYf6FRK-40" target="2N-X7fBch58RBfS6cuom-26">
          <mxGeometry relative="1" as="geometry" />
        </mxCell>
        <mxCell id="nPpdYYNUiPZGZsYf6FRK-40" value="Salary" style="swimlane;fontStyle=1;align=center;verticalAlign=top;childLayout=stackLayout;horizontal=1;startSize=26;horizontalStack=0;resizeParent=1;resizeParentMax=0;resizeLast=0;collapsible=1;marginBottom=0;whiteSpace=wrap;html=1;fontSize=13;" vertex="1" parent="WIyWlLk6GJQsqaUBKTNV-1">
          <mxGeometry x="-11" y="-727" width="208" height="320" as="geometry" />
        </mxCell>
        <mxCell id="nPpdYYNUiPZGZsYf6FRK-41" value="- EmployeeID : Int" style="text;strokeColor=none;fillColor=none;align=left;verticalAlign=top;spacingLeft=4;spacingRight=4;overflow=hidden;rotatable=0;points=[[0,0.5],[1,0.5]];portConstraint=eastwest;whiteSpace=wrap;html=1;fontSize=13;" vertex="1" parent="nPpdYYNUiPZGZsYf6FRK-40">
          <mxGeometry y="26" width="208" height="26" as="geometry" />
        </mxCell>
        <mxCell id="nPpdYYNUiPZGZsYf6FRK-52" value="- DayWork : Int" style="text;strokeColor=none;fillColor=none;align=left;verticalAlign=top;spacingLeft=4;spacingRight=4;overflow=hidden;rotatable=0;points=[[0,0.5],[1,0.5]];portConstraint=eastwest;whiteSpace=wrap;html=1;fontSize=13;" vertex="1" parent="nPpdYYNUiPZGZsYf6FRK-40">
          <mxGeometry y="52" width="208" height="26" as="geometry" />
        </mxCell>
        <mxCell id="nPpdYYNUiPZGZsYf6FRK-51" value="- OverTime : Int" style="text;strokeColor=none;fillColor=none;align=left;verticalAlign=top;spacingLeft=4;spacingRight=4;overflow=hidden;rotatable=0;points=[[0,0.5],[1,0.5]];portConstraint=eastwest;whiteSpace=wrap;html=1;fontSize=13;" vertex="1" parent="nPpdYYNUiPZGZsYf6FRK-40">
          <mxGeometry y="78" width="208" height="26" as="geometry" />
        </mxCell>
        <mxCell id="nPpdYYNUiPZGZsYf6FRK-141" value="- PaidSalary : Int" style="text;strokeColor=none;fillColor=none;align=left;verticalAlign=top;spacingLeft=4;spacingRight=4;overflow=hidden;rotatable=0;points=[[0,0.5],[1,0.5]];portConstraint=eastwest;whiteSpace=wrap;html=1;fontSize=13;" vertex="1" parent="nPpdYYNUiPZGZsYf6FRK-40">
          <mxGeometry y="104" width="208" height="26" as="geometry" />
        </mxCell>
        <mxCell id="nPpdYYNUiPZGZsYf6FRK-144" value="- TotalSalary : Int" style="text;strokeColor=none;fillColor=none;align=left;verticalAlign=top;spacingLeft=4;spacingRight=4;overflow=hidden;rotatable=0;points=[[0,0.5],[1,0.5]];portConstraint=eastwest;whiteSpace=wrap;html=1;fontSize=13;" vertex="1" parent="nPpdYYNUiPZGZsYf6FRK-40">
          <mxGeometry y="130" width="208" height="26" as="geometry" />
        </mxCell>
        <mxCell id="2N-X7fBch58RBfS6cuom-77" value="- EmployeeID : Int" style="text;strokeColor=none;fillColor=none;align=left;verticalAlign=top;spacingLeft=4;spacingRight=4;overflow=hidden;rotatable=0;points=[[0,0.5],[1,0.5]];portConstraint=eastwest;whiteSpace=wrap;html=1;fontSize=13;" vertex="1" parent="nPpdYYNUiPZGZsYf6FRK-40">
          <mxGeometry y="156" width="208" height="26" as="geometry" />
        </mxCell>
        <mxCell id="nPpdYYNUiPZGZsYf6FRK-145" value="- RemainingSalary : Int" style="text;strokeColor=none;fillColor=none;align=left;verticalAlign=top;spacingLeft=4;spacingRight=4;overflow=hidden;rotatable=0;points=[[0,0.5],[1,0.5]];portConstraint=eastwest;whiteSpace=wrap;html=1;fontSize=13;" vertex="1" parent="nPpdYYNUiPZGZsYf6FRK-40">
          <mxGeometry y="182" width="208" height="26" as="geometry" />
        </mxCell>
        <mxCell id="nPpdYYNUiPZGZsYf6FRK-42" value="" style="line;strokeWidth=1;fillColor=none;align=left;verticalAlign=middle;spacingTop=-1;spacingLeft=3;spacingRight=3;rotatable=0;labelPosition=right;points=[];portConstraint=eastwest;strokeColor=inherit;fontSize=13;" vertex="1" parent="nPpdYYNUiPZGZsYf6FRK-40">
          <mxGeometry y="208" width="208" height="8" as="geometry" />
        </mxCell>
        <mxCell id="nPpdYYNUiPZGZsYf6FRK-43" value="+ DayWork : Int" style="text;strokeColor=none;fillColor=none;align=left;verticalAlign=top;spacingLeft=4;spacingRight=4;overflow=hidden;rotatable=0;points=[[0,0.5],[1,0.5]];portConstraint=eastwest;whiteSpace=wrap;html=1;fontSize=13;" vertex="1" parent="nPpdYYNUiPZGZsYf6FRK-40">
          <mxGeometry y="216" width="208" height="26" as="geometry" />
        </mxCell>
        <mxCell id="nPpdYYNUiPZGZsYf6FRK-138" value="+ OverTime : Int" style="text;strokeColor=none;fillColor=none;align=left;verticalAlign=top;spacingLeft=4;spacingRight=4;overflow=hidden;rotatable=0;points=[[0,0.5],[1,0.5]];portConstraint=eastwest;whiteSpace=wrap;html=1;fontSize=13;" vertex="1" parent="nPpdYYNUiPZGZsYf6FRK-40">
          <mxGeometry y="242" width="208" height="26" as="geometry" />
        </mxCell>
        <mxCell id="nPpdYYNUiPZGZsYf6FRK-140" value="+ SalaryTotalCaculation() int" style="text;strokeColor=none;fillColor=none;align=left;verticalAlign=top;spacingLeft=4;spacingRight=4;overflow=hidden;rotatable=0;points=[[0,0.5],[1,0.5]];portConstraint=eastwest;whiteSpace=wrap;html=1;fontSize=13;" vertex="1" parent="nPpdYYNUiPZGZsYf6FRK-40">
          <mxGeometry y="268" width="208" height="26" as="geometry" />
        </mxCell>
        <mxCell id="nPpdYYNUiPZGZsYf6FRK-142" value="+ SalaryRemainingCaculator() int" style="text;strokeColor=none;fillColor=none;align=left;verticalAlign=top;spacingLeft=4;spacingRight=4;overflow=hidden;rotatable=0;points=[[0,0.5],[1,0.5]];portConstraint=eastwest;whiteSpace=wrap;html=1;fontSize=13;" vertex="1" parent="nPpdYYNUiPZGZsYf6FRK-40">
          <mxGeometry y="294" width="208" height="26" as="geometry" />
        </mxCell>
        <mxCell id="2N-X7fBch58RBfS6cuom-84" style="edgeStyle=orthogonalEdgeStyle;rounded=0;orthogonalLoop=1;jettySize=auto;html=1;endArrow=diamond;endFill=1;endSize=9;fontSize=13;" edge="1" parent="WIyWlLk6GJQsqaUBKTNV-1" source="nPpdYYNUiPZGZsYf6FRK-54" target="zkfFHV4jXpPFQw0GAbJ--0">
          <mxGeometry relative="1" as="geometry">
            <Array as="points">
              <mxPoint x="-418" y="-338" />
              <mxPoint x="-418" y="-338" />
            </Array>
          </mxGeometry>
        </mxCell>
        <mxCell id="2N-X7fBch58RBfS6cuom-86" style="edgeStyle=orthogonalEdgeStyle;rounded=0;orthogonalLoop=1;jettySize=auto;html=1;endSize=9;endArrow=diamond;endFill=0;fontSize=13;" edge="1" parent="WIyWlLk6GJQsqaUBKTNV-1" source="nPpdYYNUiPZGZsYf6FRK-54" target="2N-X7fBch58RBfS6cuom-63">
          <mxGeometry relative="1" as="geometry" />
        </mxCell>
        <mxCell id="nPpdYYNUiPZGZsYf6FRK-54" value="Project" style="swimlane;fontStyle=1;align=center;verticalAlign=top;childLayout=stackLayout;horizontal=1;startSize=26;horizontalStack=0;resizeParent=1;resizeParentMax=0;resizeLast=0;collapsible=1;marginBottom=0;whiteSpace=wrap;html=1;fontSize=13;" vertex="1" parent="WIyWlLk6GJQsqaUBKTNV-1">
          <mxGeometry x="-619" y="-599" width="160" height="320" as="geometry" />
        </mxCell>
        <mxCell id="nPpdYYNUiPZGZsYf6FRK-55" value="- ProjectID : Int" style="text;strokeColor=none;fillColor=none;align=left;verticalAlign=top;spacingLeft=4;spacingRight=4;overflow=hidden;rotatable=0;points=[[0,0.5],[1,0.5]];portConstraint=eastwest;whiteSpace=wrap;html=1;fontSize=13;" vertex="1" parent="nPpdYYNUiPZGZsYf6FRK-54">
          <mxGeometry y="26" width="160" height="26" as="geometry" />
        </mxCell>
        <mxCell id="nPpdYYNUiPZGZsYf6FRK-61" value="- EmployeeID : Int" style="text;strokeColor=none;fillColor=none;align=left;verticalAlign=top;spacingLeft=4;spacingRight=4;overflow=hidden;rotatable=0;points=[[0,0.5],[1,0.5]];portConstraint=eastwest;whiteSpace=wrap;html=1;fontSize=13;" vertex="1" parent="nPpdYYNUiPZGZsYf6FRK-54">
          <mxGeometry y="52" width="160" height="26" as="geometry" />
        </mxCell>
        <mxCell id="nPpdYYNUiPZGZsYf6FRK-58" value="- ProjectName : String" style="text;strokeColor=none;fillColor=none;align=left;verticalAlign=top;spacingLeft=4;spacingRight=4;overflow=hidden;rotatable=0;points=[[0,0.5],[1,0.5]];portConstraint=eastwest;whiteSpace=wrap;html=1;fontSize=13;" vertex="1" parent="nPpdYYNUiPZGZsYf6FRK-54">
          <mxGeometry y="78" width="160" height="26" as="geometry" />
        </mxCell>
        <mxCell id="nPpdYYNUiPZGZsYf6FRK-59" value="- ProjectDetail : String" style="text;strokeColor=none;fillColor=none;align=left;verticalAlign=top;spacingLeft=4;spacingRight=4;overflow=hidden;rotatable=0;points=[[0,0.5],[1,0.5]];portConstraint=eastwest;whiteSpace=wrap;html=1;fontSize=13;" vertex="1" parent="nPpdYYNUiPZGZsYf6FRK-54">
          <mxGeometry y="104" width="160" height="26" as="geometry" />
        </mxCell>
        <mxCell id="nPpdYYNUiPZGZsYf6FRK-60" value="- ProjectBonus : Int" style="text;strokeColor=none;fillColor=none;align=left;verticalAlign=top;spacingLeft=4;spacingRight=4;overflow=hidden;rotatable=0;points=[[0,0.5],[1,0.5]];portConstraint=eastwest;whiteSpace=wrap;html=1;fontSize=13;" vertex="1" parent="nPpdYYNUiPZGZsYf6FRK-54">
          <mxGeometry y="130" width="160" height="26" as="geometry" />
        </mxCell>
        <mxCell id="nPpdYYNUiPZGZsYf6FRK-62" value="- Status : Bool" style="text;strokeColor=none;fillColor=none;align=left;verticalAlign=top;spacingLeft=4;spacingRight=4;overflow=hidden;rotatable=0;points=[[0,0.5],[1,0.5]];portConstraint=eastwest;whiteSpace=wrap;html=1;fontSize=13;" vertex="1" parent="nPpdYYNUiPZGZsYf6FRK-54">
          <mxGeometry y="156" width="160" height="26" as="geometry" />
        </mxCell>
        <mxCell id="nPpdYYNUiPZGZsYf6FRK-56" value="" style="line;strokeWidth=1;fillColor=none;align=left;verticalAlign=middle;spacingTop=-1;spacingLeft=3;spacingRight=3;rotatable=0;labelPosition=right;points=[];portConstraint=eastwest;strokeColor=inherit;fontSize=13;" vertex="1" parent="nPpdYYNUiPZGZsYf6FRK-54">
          <mxGeometry y="182" width="160" height="8" as="geometry" />
        </mxCell>
        <mxCell id="nPpdYYNUiPZGZsYf6FRK-57" value="+ GetProjectID() : Int" style="text;strokeColor=none;fillColor=none;align=left;verticalAlign=top;spacingLeft=4;spacingRight=4;overflow=hidden;rotatable=0;points=[[0,0.5],[1,0.5]];portConstraint=eastwest;whiteSpace=wrap;html=1;fontSize=13;" vertex="1" parent="nPpdYYNUiPZGZsYf6FRK-54">
          <mxGeometry y="190" width="160" height="26" as="geometry" />
        </mxCell>
        <mxCell id="nPpdYYNUiPZGZsYf6FRK-67" value="+ EmployeeID : Int" style="text;strokeColor=none;fillColor=none;align=left;verticalAlign=top;spacingLeft=4;spacingRight=4;overflow=hidden;rotatable=0;points=[[0,0.5],[1,0.5]];portConstraint=eastwest;whiteSpace=wrap;html=1;fontSize=13;" vertex="1" parent="nPpdYYNUiPZGZsYf6FRK-54">
          <mxGeometry y="216" width="160" height="26" as="geometry" />
        </mxCell>
        <mxCell id="nPpdYYNUiPZGZsYf6FRK-64" value="+ ProjectName : String" style="text;strokeColor=none;fillColor=none;align=left;verticalAlign=top;spacingLeft=4;spacingRight=4;overflow=hidden;rotatable=0;points=[[0,0.5],[1,0.5]];portConstraint=eastwest;whiteSpace=wrap;html=1;fontSize=13;" vertex="1" parent="nPpdYYNUiPZGZsYf6FRK-54">
          <mxGeometry y="242" width="160" height="26" as="geometry" />
        </mxCell>
        <mxCell id="nPpdYYNUiPZGZsYf6FRK-65" value="+ ProjectDetail : String" style="text;strokeColor=none;fillColor=none;align=left;verticalAlign=top;spacingLeft=4;spacingRight=4;overflow=hidden;rotatable=0;points=[[0,0.5],[1,0.5]];portConstraint=eastwest;whiteSpace=wrap;html=1;fontSize=13;" vertex="1" parent="nPpdYYNUiPZGZsYf6FRK-54">
          <mxGeometry y="268" width="160" height="26" as="geometry" />
        </mxCell>
        <mxCell id="nPpdYYNUiPZGZsYf6FRK-66" value="+ ProjectBonus : Int" style="text;strokeColor=none;fillColor=none;align=left;verticalAlign=top;spacingLeft=4;spacingRight=4;overflow=hidden;rotatable=0;points=[[0,0.5],[1,0.5]];portConstraint=eastwest;whiteSpace=wrap;html=1;fontSize=13;" vertex="1" parent="nPpdYYNUiPZGZsYf6FRK-54">
          <mxGeometry y="294" width="160" height="26" as="geometry" />
        </mxCell>
        <mxCell id="nPpdYYNUiPZGZsYf6FRK-117" value="Employees" style="swimlane;fontStyle=2;align=center;verticalAlign=top;childLayout=stackLayout;horizontal=1;startSize=26;horizontalStack=0;resizeParent=1;resizeLast=0;collapsible=1;marginBottom=0;rounded=0;shadow=0;strokeWidth=1;fontSize=13;" vertex="1" parent="WIyWlLk6GJQsqaUBKTNV-1">
          <mxGeometry x="1935" y="495" width="234" height="686" as="geometry">
            <mxRectangle x="230" y="140" width="160" height="26" as="alternateBounds" />
          </mxGeometry>
        </mxCell>
        <mxCell id="nPpdYYNUiPZGZsYf6FRK-118" value="- ID : Int" style="text;align=left;verticalAlign=top;spacingLeft=4;spacingRight=4;overflow=hidden;rotatable=0;points=[[0,0.5],[1,0.5]];portConstraint=eastwest;rounded=0;shadow=0;html=0;fontSize=13;" vertex="1" parent="nPpdYYNUiPZGZsYf6FRK-117">
          <mxGeometry y="26" width="234" height="26" as="geometry" />
        </mxCell>
        <mxCell id="nPpdYYNUiPZGZsYf6FRK-119" value="- PositionID : Int" style="text;align=left;verticalAlign=top;spacingLeft=4;spacingRight=4;overflow=hidden;rotatable=0;points=[[0,0.5],[1,0.5]];portConstraint=eastwest;rounded=0;shadow=0;html=0;fontSize=13;" vertex="1" parent="nPpdYYNUiPZGZsYf6FRK-117">
          <mxGeometry y="52" width="234" height="26" as="geometry" />
        </mxCell>
        <mxCell id="nPpdYYNUiPZGZsYf6FRK-120" value="+ AddEmployeesData()" style="text;align=left;verticalAlign=top;spacingLeft=4;spacingRight=4;overflow=hidden;rotatable=0;points=[[0,0.5],[1,0.5]];portConstraint=eastwest;rounded=0;shadow=0;html=0;fontSize=13;" vertex="1" parent="nPpdYYNUiPZGZsYf6FRK-117">
          <mxGeometry y="78" width="234" height="26" as="geometry" />
        </mxCell>
        <mxCell id="nPpdYYNUiPZGZsYf6FRK-121" value="+ AddInformation()" style="text;align=left;verticalAlign=top;spacingLeft=4;spacingRight=4;overflow=hidden;rotatable=0;points=[[0,0.5],[1,0.5]];portConstraint=eastwest;rounded=0;shadow=0;html=0;fontSize=13;" vertex="1" parent="nPpdYYNUiPZGZsYf6FRK-117">
          <mxGeometry y="104" width="234" height="26" as="geometry" />
        </mxCell>
        <mxCell id="nPpdYYNUiPZGZsYf6FRK-122" value="+ EditInformation()" style="text;align=left;verticalAlign=top;spacingLeft=4;spacingRight=4;overflow=hidden;rotatable=0;points=[[0,0.5],[1,0.5]];portConstraint=eastwest;rounded=0;shadow=0;html=0;fontSize=13;" vertex="1" parent="nPpdYYNUiPZGZsYf6FRK-117">
          <mxGeometry y="130" width="234" height="26" as="geometry" />
        </mxCell>
        <mxCell id="nPpdYYNUiPZGZsYf6FRK-123" value="+ DeleteInformation()" style="text;align=left;verticalAlign=top;spacingLeft=4;spacingRight=4;overflow=hidden;rotatable=0;points=[[0,0.5],[1,0.5]];portConstraint=eastwest;rounded=0;shadow=0;html=0;fontSize=13;" vertex="1" parent="nPpdYYNUiPZGZsYf6FRK-117">
          <mxGeometry y="156" width="234" height="26" as="geometry" />
        </mxCell>
        <mxCell id="nPpdYYNUiPZGZsYf6FRK-124" value="HRDepartment" style="swimlane;fontStyle=2;align=center;verticalAlign=top;childLayout=stackLayout;horizontal=1;startSize=26;horizontalStack=0;resizeParent=1;resizeLast=0;collapsible=1;marginBottom=0;rounded=0;shadow=0;strokeWidth=1;fontSize=13;" vertex="1" parent="WIyWlLk6GJQsqaUBKTNV-1">
          <mxGeometry x="2125" y="516" width="234" height="686" as="geometry">
            <mxRectangle x="230" y="140" width="160" height="26" as="alternateBounds" />
          </mxGeometry>
        </mxCell>
        <mxCell id="nPpdYYNUiPZGZsYf6FRK-125" style="group;fontSize=13;" vertex="1" parent="WIyWlLk6GJQsqaUBKTNV-1">
          <mxGeometry x="1877" y="582" width="482" height="620" as="geometry" />
        </mxCell>
        <mxCell id="nPpdYYNUiPZGZsYf6FRK-126" value="CompositePatternExample" style="text;strokeColor=none;fillColor=none;align=center;verticalAlign=middle;whiteSpace=wrap;rounded=0;shadow=0;html=0;fontSize=13;" vertex="1" parent="WIyWlLk6GJQsqaUBKTNV-1">
          <mxGeometry x="1977" y="452" width="272" height="60" as="geometry" />
        </mxCell>
        <mxCell id="nPpdYYNUiPZGZsYf6FRK-127" value="Composite Pattern" style="text;strokeColor=none;fillColor=none;align=center;verticalAlign=middle;whiteSpace=wrap;rounded=0;shadow=0;html=0;fontStyle=1;fontSize=13;" vertex="1" parent="WIyWlLk6GJQsqaUBKTNV-1">
          <mxGeometry x="1977" y="512" width="272" height="26" as="geometry" />
        </mxCell>
        <mxCell id="nPpdYYNUiPZGZsYf6FRK-128" style="group;fontSize=13;" vertex="1" parent="WIyWlLk6GJQsqaUBKTNV-1">
          <mxGeometry x="1685" y="582" width="146" height="620" as="geometry" />
        </mxCell>
        <mxCell id="nPpdYYNUiPZGZsYf6FRK-129" value="Component" style="text;strokeColor=none;fillColor=none;align=center;verticalAlign=middle;whiteSpace=wrap;rounded=0;shadow=0;html=0;fontSize=13;" vertex="1" parent="WIyWlLk6GJQsqaUBKTNV-1">
          <mxGeometry x="1685" y="552" width="146" height="26" as="geometry" />
        </mxCell>
        <mxCell id="nPpdYYNUiPZGZsYf6FRK-130" style="edgeStyle=orthogonalEdgeStyle;rounded=0;orthogonalLoop=1;jettySize=auto;html=1;fontSize=13;" edge="1" parent="WIyWlLk6GJQsqaUBKTNV-1" source="nPpdYYNUiPZGZsYf6FRK-129" target="nPpdYYNUiPZGZsYf6FRK-117">
          <mxGeometry relative="1" as="geometry" />
        </mxCell>
        <mxCell id="nPpdYYNUiPZGZsYf6FRK-131" value="Composite" style="text;strokeColor=none;fillColor=none;align=center;verticalAlign=middle;whiteSpace=wrap;rounded=0;shadow=0;html=0;fontSize=13;" vertex="1" parent="WIyWlLk6GJQsqaUBKTNV-1">
          <mxGeometry x="1685" y="732" width="146" height="26" as="geometry" />
        </mxCell>
        <mxCell id="nPpdYYNUiPZGZsYf6FRK-132" style="edgeStyle=orthogonalEdgeStyle;rounded=0;orthogonalLoop=1;jettySize=auto;html=1;fontSize=13;" edge="1" parent="WIyWlLk6GJQsqaUBKTNV-1" source="nPpdYYNUiPZGZsYf6FRK-131" target="nPpdYYNUiPZGZsYf6FRK-117">
          <mxGeometry relative="1" as="geometry" />
        </mxCell>
        <mxCell id="nPpdYYNUiPZGZsYf6FRK-133" value="Leaf" style="text;strokeColor=none;fillColor=none;align=center;verticalAlign=middle;whiteSpace=wrap;rounded=0;shadow=0;html=0;fontSize=13;" vertex="1" parent="WIyWlLk6GJQsqaUBKTNV-1">
          <mxGeometry x="1685" y="912" width="146" height="26" as="geometry" />
        </mxCell>
        <mxCell id="nPpdYYNUiPZGZsYf6FRK-134" style="edgeStyle=orthogonalEdgeStyle;rounded=0;orthogonalLoop=1;jettySize=auto;html=1;fontSize=13;" edge="1" parent="WIyWlLk6GJQsqaUBKTNV-1" source="nPpdYYNUiPZGZsYf6FRK-133" target="nPpdYYNUiPZGZsYf6FRK-117">
          <mxGeometry relative="1" as="geometry" />
        </mxCell>
        <mxCell id="nPpdYYNUiPZGZsYf6FRK-135" style="edgeStyle=orthogonalEdgeStyle;rounded=0;orthogonalLoop=1;jettySize=auto;html=1;fontSize=13;" edge="1" parent="WIyWlLk6GJQsqaUBKTNV-1" source="nPpdYYNUiPZGZsYf6FRK-133" target="nPpdYYNUiPZGZsYf6FRK-118">
          <mxGeometry relative="1" as="geometry" />
        </mxCell>
        <mxCell id="nPpdYYNUiPZGZsYf6FRK-136" style="edgeStyle=orthogonalEdgeStyle;rounded=0;orthogonalLoop=1;jettySize=auto;html=1;fontSize=13;" edge="1" parent="WIyWlLk6GJQsqaUBKTNV-1" source="nPpdYYNUiPZGZsYf6FRK-133" target="nPpdYYNUiPZGZsYf6FRK-119">
          <mxGeometry relative="1" as="geometry" />
        </mxCell>
        <mxCell id="nPpdYYNUiPZGZsYf6FRK-137" style="edgeStyle=orthogonalEdgeStyle;rounded=0;orthogonalLoop=1;jettySize=auto;html=1;" edge="1" parent="WIyWlLk6GJQsqaUBKTNV-1" source="nPpdYYNUiPZGZsYf6FRK-133">
          <mxGeometry relative="1" as="geometry" />
        </mxCell>
        <mxCell id="2N-X7fBch58RBfS6cuom-81" style="edgeStyle=orthogonalEdgeStyle;rounded=0;orthogonalLoop=1;jettySize=auto;html=1;endArrow=open;endFill=0;endSize=9;fontSize=13;" edge="1" parent="WIyWlLk6GJQsqaUBKTNV-1" source="2N-X7fBch58RBfS6cuom-0" target="2N-X7fBch58RBfS6cuom-63">
          <mxGeometry relative="1" as="geometry">
            <Array as="points">
              <mxPoint x="-539" y="-1027" />
            </Array>
          </mxGeometry>
        </mxCell>
        <mxCell id="2N-X7fBch58RBfS6cuom-82" style="edgeStyle=orthogonalEdgeStyle;rounded=0;orthogonalLoop=1;jettySize=auto;html=1;endArrow=open;endFill=0;endSize=9;fontSize=13;" edge="1" parent="WIyWlLk6GJQsqaUBKTNV-1" source="2N-X7fBch58RBfS6cuom-0" target="2N-X7fBch58RBfS6cuom-26">
          <mxGeometry relative="1" as="geometry">
            <Array as="points">
              <mxPoint x="93" y="-1027" />
            </Array>
          </mxGeometry>
        </mxCell>
        <mxCell id="2N-X7fBch58RBfS6cuom-83" style="edgeStyle=orthogonalEdgeStyle;rounded=0;orthogonalLoop=1;jettySize=auto;html=1;endArrow=open;endFill=0;endSize=9;fontSize=13;" edge="1" parent="WIyWlLk6GJQsqaUBKTNV-1" source="2N-X7fBch58RBfS6cuom-0" target="2N-X7fBch58RBfS6cuom-7">
          <mxGeometry relative="1" as="geometry" />
        </mxCell>
        <mxCell id="2N-X7fBch58RBfS6cuom-0" value="Main" style="swimlane;fontStyle=1;align=center;verticalAlign=top;childLayout=stackLayout;horizontal=1;startSize=26;horizontalStack=0;resizeParent=1;resizeParentMax=0;resizeLast=0;collapsible=1;marginBottom=0;whiteSpace=wrap;html=1;fontSize=13;" vertex="1" parent="WIyWlLk6GJQsqaUBKTNV-1">
          <mxGeometry x="-445" y="-1096" width="446" height="164" as="geometry" />
        </mxCell>
        <mxCell id="2N-X7fBch58RBfS6cuom-1" value="+ employeeController : EmployeeController" style="text;strokeColor=none;fillColor=none;align=left;verticalAlign=top;spacingLeft=4;spacingRight=4;overflow=hidden;rotatable=0;points=[[0,0.5],[1,0.5]];portConstraint=eastwest;whiteSpace=wrap;html=1;fontSize=13;" vertex="1" parent="2N-X7fBch58RBfS6cuom-0">
          <mxGeometry y="26" width="446" height="26" as="geometry" />
        </mxCell>
        <mxCell id="2N-X7fBch58RBfS6cuom-85" value="+ projectController : ProjectController" style="text;strokeColor=none;fillColor=none;align=left;verticalAlign=top;spacingLeft=4;spacingRight=4;overflow=hidden;rotatable=0;points=[[0,0.5],[1,0.5]];portConstraint=eastwest;whiteSpace=wrap;html=1;fontSize=13;" vertex="1" parent="2N-X7fBch58RBfS6cuom-0">
          <mxGeometry y="52" width="446" height="26" as="geometry" />
        </mxCell>
        <mxCell id="2N-X7fBch58RBfS6cuom-5" value="+ salaryController : SalaryController" style="text;strokeColor=none;fillColor=none;align=left;verticalAlign=top;spacingLeft=4;spacingRight=4;overflow=hidden;rotatable=0;points=[[0,0.5],[1,0.5]];portConstraint=eastwest;whiteSpace=wrap;html=1;fontSize=13;" vertex="1" parent="2N-X7fBch58RBfS6cuom-0">
          <mxGeometry y="78" width="446" height="26" as="geometry" />
        </mxCell>
        <mxCell id="2N-X7fBch58RBfS6cuom-2" value="" style="line;strokeWidth=1;fillColor=none;align=left;verticalAlign=middle;spacingTop=-1;spacingLeft=3;spacingRight=3;rotatable=0;labelPosition=right;points=[];portConstraint=eastwest;strokeColor=inherit;fontSize=13;" vertex="1" parent="2N-X7fBch58RBfS6cuom-0">
          <mxGeometry y="104" width="446" height="8" as="geometry" />
        </mxCell>
        <mxCell id="2N-X7fBch58RBfS6cuom-3" value="+ showMenu() : void" style="text;strokeColor=none;fillColor=none;align=left;verticalAlign=top;spacingLeft=4;spacingRight=4;overflow=hidden;rotatable=0;points=[[0,0.5],[1,0.5]];portConstraint=eastwest;whiteSpace=wrap;html=1;fontSize=13;" vertex="1" parent="2N-X7fBch58RBfS6cuom-0">
          <mxGeometry y="112" width="446" height="26" as="geometry" />
        </mxCell>
        <mxCell id="2N-X7fBch58RBfS6cuom-6" value="+ ControllChoice(choice string) : void&amp;nbsp;" style="text;strokeColor=none;fillColor=none;align=left;verticalAlign=top;spacingLeft=4;spacingRight=4;overflow=hidden;rotatable=0;points=[[0,0.5],[1,0.5]];portConstraint=eastwest;whiteSpace=wrap;html=1;fontSize=13;" vertex="1" parent="2N-X7fBch58RBfS6cuom-0">
          <mxGeometry y="138" width="446" height="26" as="geometry" />
        </mxCell>
        <mxCell id="2N-X7fBch58RBfS6cuom-7" value="EmployeeController" style="swimlane;fontStyle=1;align=center;verticalAlign=top;childLayout=stackLayout;horizontal=1;startSize=26;horizontalStack=0;resizeParent=1;resizeParentMax=0;resizeLast=0;collapsible=1;marginBottom=0;whiteSpace=wrap;html=1;fontSize=13;" vertex="1" parent="WIyWlLk6GJQsqaUBKTNV-1">
          <mxGeometry x="-359" y="-866" width="274" height="190" as="geometry" />
        </mxCell>
        <mxCell id="2N-X7fBch58RBfS6cuom-8" value="+ ListEmployee: List&amp;lt;Employee&amp;gt;" style="text;strokeColor=none;fillColor=none;align=left;verticalAlign=top;spacingLeft=4;spacingRight=4;overflow=hidden;rotatable=0;points=[[0,0.5],[1,0.5]];portConstraint=eastwest;whiteSpace=wrap;html=1;fontSize=13;" vertex="1" parent="2N-X7fBch58RBfS6cuom-7">
          <mxGeometry y="26" width="274" height="26" as="geometry" />
        </mxCell>
        <mxCell id="2N-X7fBch58RBfS6cuom-9" value="" style="line;strokeWidth=1;fillColor=none;align=left;verticalAlign=middle;spacingTop=-1;spacingLeft=3;spacingRight=3;rotatable=0;labelPosition=right;points=[];portConstraint=eastwest;strokeColor=inherit;fontSize=13;" vertex="1" parent="2N-X7fBch58RBfS6cuom-7">
          <mxGeometry y="52" width="274" height="8" as="geometry" />
        </mxCell>
        <mxCell id="2N-X7fBch58RBfS6cuom-12" value="+ ViewEmployeeInfo() : void" style="text;strokeColor=none;fillColor=none;align=left;verticalAlign=top;spacingLeft=4;spacingRight=4;overflow=hidden;rotatable=0;points=[[0,0.5],[1,0.5]];portConstraint=eastwest;whiteSpace=wrap;html=1;fontSize=13;" vertex="1" parent="2N-X7fBch58RBfS6cuom-7">
          <mxGeometry y="60" width="274" height="26" as="geometry" />
        </mxCell>
        <mxCell id="2N-X7fBch58RBfS6cuom-10" value="+ AddEmployee() : void" style="text;strokeColor=none;fillColor=none;align=left;verticalAlign=top;spacingLeft=4;spacingRight=4;overflow=hidden;rotatable=0;points=[[0,0.5],[1,0.5]];portConstraint=eastwest;whiteSpace=wrap;html=1;fontSize=13;" vertex="1" parent="2N-X7fBch58RBfS6cuom-7">
          <mxGeometry y="86" width="274" height="26" as="geometry" />
        </mxCell>
        <mxCell id="2N-X7fBch58RBfS6cuom-11" value="+ EditEmployee() : void" style="text;strokeColor=none;fillColor=none;align=left;verticalAlign=top;spacingLeft=4;spacingRight=4;overflow=hidden;rotatable=0;points=[[0,0.5],[1,0.5]];portConstraint=eastwest;whiteSpace=wrap;html=1;fontSize=13;" vertex="1" parent="2N-X7fBch58RBfS6cuom-7">
          <mxGeometry y="112" width="274" height="26" as="geometry" />
        </mxCell>
        <mxCell id="2N-X7fBch58RBfS6cuom-62" value="+ DeleteEmployee() : void" style="text;strokeColor=none;fillColor=none;align=left;verticalAlign=top;spacingLeft=4;spacingRight=4;overflow=hidden;rotatable=0;points=[[0,0.5],[1,0.5]];portConstraint=eastwest;whiteSpace=wrap;html=1;fontSize=13;" vertex="1" parent="2N-X7fBch58RBfS6cuom-7">
          <mxGeometry y="138" width="274" height="26" as="geometry" />
        </mxCell>
        <mxCell id="2N-X7fBch58RBfS6cuom-13" value="+ SearchEmployee(input: String) : void" style="text;strokeColor=none;fillColor=none;align=left;verticalAlign=top;spacingLeft=4;spacingRight=4;overflow=hidden;rotatable=0;points=[[0,0.5],[1,0.5]];portConstraint=eastwest;whiteSpace=wrap;html=1;fontSize=13;" vertex="1" parent="2N-X7fBch58RBfS6cuom-7">
          <mxGeometry y="164" width="274" height="26" as="geometry" />
        </mxCell>
        <mxCell id="2N-X7fBch58RBfS6cuom-26" value="SalaryController" style="swimlane;fontStyle=1;align=center;verticalAlign=top;childLayout=stackLayout;horizontal=1;startSize=26;horizontalStack=0;resizeParent=1;resizeParentMax=0;resizeLast=0;collapsible=1;marginBottom=0;whiteSpace=wrap;html=1;fontSize=13;" vertex="1" parent="WIyWlLk6GJQsqaUBKTNV-1">
          <mxGeometry x="-41" y="-866" width="268" height="86" as="geometry" />
        </mxCell>
        <mxCell id="2N-X7fBch58RBfS6cuom-27" value="+ ListSalary : List&amp;lt;Salary&amp;gt;" style="text;strokeColor=none;fillColor=none;align=left;verticalAlign=top;spacingLeft=4;spacingRight=4;overflow=hidden;rotatable=0;points=[[0,0.5],[1,0.5]];portConstraint=eastwest;whiteSpace=wrap;html=1;fontSize=13;" vertex="1" parent="2N-X7fBch58RBfS6cuom-26">
          <mxGeometry y="26" width="268" height="26" as="geometry" />
        </mxCell>
        <mxCell id="2N-X7fBch58RBfS6cuom-28" value="" style="line;strokeWidth=1;fillColor=none;align=left;verticalAlign=middle;spacingTop=-1;spacingLeft=3;spacingRight=3;rotatable=0;labelPosition=right;points=[];portConstraint=eastwest;strokeColor=inherit;fontSize=13;" vertex="1" parent="2N-X7fBch58RBfS6cuom-26">
          <mxGeometry y="52" width="268" height="8" as="geometry" />
        </mxCell>
        <mxCell id="2N-X7fBch58RBfS6cuom-29" value="+ viewSalaryofEmployee() : void" style="text;strokeColor=none;fillColor=none;align=left;verticalAlign=top;spacingLeft=4;spacingRight=4;overflow=hidden;rotatable=0;points=[[0,0.5],[1,0.5]];portConstraint=eastwest;whiteSpace=wrap;html=1;fontSize=13;" vertex="1" parent="2N-X7fBch58RBfS6cuom-26">
          <mxGeometry y="60" width="268" height="26" as="geometry" />
        </mxCell>
        <mxCell id="2N-X7fBch58RBfS6cuom-73" style="edgeStyle=orthogonalEdgeStyle;rounded=0;orthogonalLoop=1;jettySize=auto;html=1;endSize=9;endArrow=block;endFill=0;fontSize=13;" edge="1" parent="WIyWlLk6GJQsqaUBKTNV-1" source="2N-X7fBch58RBfS6cuom-31" target="2N-X7fBch58RBfS6cuom-54">
          <mxGeometry relative="1" as="geometry">
            <Array as="points">
              <mxPoint x="15" y="-139" />
              <mxPoint x="90" y="-139" />
            </Array>
          </mxGeometry>
        </mxCell>
        <mxCell id="2N-X7fBch58RBfS6cuom-31" value="Manager" style="swimlane;fontStyle=1;align=center;verticalAlign=top;childLayout=stackLayout;horizontal=1;startSize=26;horizontalStack=0;resizeParent=1;resizeParentMax=0;resizeLast=0;collapsible=1;marginBottom=0;whiteSpace=wrap;html=1;fontSize=13;" vertex="1" parent="WIyWlLk6GJQsqaUBKTNV-1">
          <mxGeometry x="-65" y="-116" width="190" height="60" as="geometry" />
        </mxCell>
        <mxCell id="2N-X7fBch58RBfS6cuom-33" value="" style="line;strokeWidth=1;fillColor=none;align=left;verticalAlign=middle;spacingTop=-1;spacingLeft=3;spacingRight=3;rotatable=0;labelPosition=right;points=[];portConstraint=eastwest;strokeColor=inherit;fontSize=13;" vertex="1" parent="2N-X7fBch58RBfS6cuom-31">
          <mxGeometry y="26" width="190" height="8" as="geometry" />
        </mxCell>
        <mxCell id="2N-X7fBch58RBfS6cuom-34" value="+ getPosistionInfor() : string" style="text;strokeColor=none;fillColor=none;align=left;verticalAlign=top;spacingLeft=4;spacingRight=4;overflow=hidden;rotatable=0;points=[[0,0.5],[1,0.5]];portConstraint=eastwest;whiteSpace=wrap;html=1;fontSize=13;" vertex="1" parent="2N-X7fBch58RBfS6cuom-31">
          <mxGeometry y="34" width="190" height="26" as="geometry" />
        </mxCell>
        <mxCell id="2N-X7fBch58RBfS6cuom-61" style="edgeStyle=orthogonalEdgeStyle;rounded=0;orthogonalLoop=1;jettySize=auto;html=1;endArrow=block;endFill=0;endSize=9;fontSize=13;" edge="1" parent="WIyWlLk6GJQsqaUBKTNV-1" source="2N-X7fBch58RBfS6cuom-35" target="2N-X7fBch58RBfS6cuom-54">
          <mxGeometry relative="1" as="geometry">
            <Array as="points">
              <mxPoint x="259" y="-138" />
              <mxPoint x="173" y="-138" />
            </Array>
          </mxGeometry>
        </mxCell>
        <mxCell id="2N-X7fBch58RBfS6cuom-35" value="Newbie" style="swimlane;fontStyle=1;align=center;verticalAlign=top;childLayout=stackLayout;horizontal=1;startSize=22;horizontalStack=0;resizeParent=1;resizeParentMax=0;resizeLast=0;collapsible=1;marginBottom=0;whiteSpace=wrap;html=1;fontSize=13;" vertex="1" parent="WIyWlLk6GJQsqaUBKTNV-1">
          <mxGeometry x="171" y="-114" width="196" height="56" as="geometry" />
        </mxCell>
        <mxCell id="2N-X7fBch58RBfS6cuom-37" value="" style="line;strokeWidth=1;fillColor=none;align=left;verticalAlign=middle;spacingTop=-1;spacingLeft=3;spacingRight=3;rotatable=0;labelPosition=right;points=[];portConstraint=eastwest;strokeColor=inherit;fontSize=13;" vertex="1" parent="2N-X7fBch58RBfS6cuom-35">
          <mxGeometry y="22" width="196" height="8" as="geometry" />
        </mxCell>
        <mxCell id="2N-X7fBch58RBfS6cuom-41" value="+ getPosistionInfor() : string" style="text;strokeColor=none;fillColor=none;align=left;verticalAlign=top;spacingLeft=4;spacingRight=4;overflow=hidden;rotatable=0;points=[[0,0.5],[1,0.5]];portConstraint=eastwest;whiteSpace=wrap;html=1;fontSize=13;" vertex="1" parent="2N-X7fBch58RBfS6cuom-35">
          <mxGeometry y="30" width="196" height="26" as="geometry" />
        </mxCell>
        <mxCell id="2N-X7fBch58RBfS6cuom-68" style="edgeStyle=orthogonalEdgeStyle;rounded=0;orthogonalLoop=1;jettySize=auto;html=1;endArrow=diamond;endFill=0;endSize=9;startSize=9;fontSize=13;" edge="1" parent="WIyWlLk6GJQsqaUBKTNV-1" source="2N-X7fBch58RBfS6cuom-54" target="zkfFHV4jXpPFQw0GAbJ--0">
          <mxGeometry relative="1" as="geometry">
            <Array as="points">
              <mxPoint x="-41" y="-249" />
              <mxPoint x="-41" y="-249" />
            </Array>
          </mxGeometry>
        </mxCell>
        <mxCell id="2N-X7fBch58RBfS6cuom-54" value="&lt;i style=&quot;font-size: 13px;&quot;&gt;Positon&lt;/i&gt;" style="swimlane;fontStyle=1;align=center;verticalAlign=top;childLayout=stackLayout;horizontal=1;startSize=26;horizontalStack=0;resizeParent=1;resizeParentMax=0;resizeLast=0;collapsible=1;marginBottom=0;whiteSpace=wrap;html=1;fontSize=13;" vertex="1" parent="WIyWlLk6GJQsqaUBKTNV-1">
          <mxGeometry x="-11" y="-301" width="241" height="138" as="geometry" />
        </mxCell>
        <mxCell id="2N-X7fBch58RBfS6cuom-49" value="- PositionID : Int" style="text;strokeColor=none;fillColor=none;align=left;verticalAlign=top;spacingLeft=4;spacingRight=4;overflow=hidden;rotatable=0;points=[[0,0.5],[1,0.5]];portConstraint=eastwest;whiteSpace=wrap;html=1;fontSize=13;" vertex="1" parent="2N-X7fBch58RBfS6cuom-54">
          <mxGeometry y="26" width="241" height="26" as="geometry" />
        </mxCell>
        <mxCell id="2N-X7fBch58RBfS6cuom-52" value="- PositionName : String" style="text;strokeColor=none;fillColor=none;align=left;verticalAlign=top;spacingLeft=4;spacingRight=4;overflow=hidden;rotatable=0;points=[[0,0.5],[1,0.5]];portConstraint=eastwest;whiteSpace=wrap;html=1;fontSize=13;" vertex="1" parent="2N-X7fBch58RBfS6cuom-54">
          <mxGeometry y="52" width="241" height="26" as="geometry" />
        </mxCell>
        <mxCell id="2N-X7fBch58RBfS6cuom-53" value="- PositionSalary : Int" style="text;strokeColor=none;fillColor=none;align=left;verticalAlign=top;spacingLeft=4;spacingRight=4;overflow=hidden;rotatable=0;points=[[0,0.5],[1,0.5]];portConstraint=eastwest;whiteSpace=wrap;html=1;fontSize=13;" vertex="1" parent="2N-X7fBch58RBfS6cuom-54">
          <mxGeometry y="78" width="241" height="26" as="geometry" />
        </mxCell>
        <mxCell id="2N-X7fBch58RBfS6cuom-56" value="" style="line;strokeWidth=1;fillColor=none;align=left;verticalAlign=middle;spacingTop=-1;spacingLeft=3;spacingRight=3;rotatable=0;labelPosition=right;points=[];portConstraint=eastwest;strokeColor=inherit;fontSize=13;" vertex="1" parent="2N-X7fBch58RBfS6cuom-54">
          <mxGeometry y="104" width="241" height="8" as="geometry" />
        </mxCell>
        <mxCell id="2N-X7fBch58RBfS6cuom-58" value="+ getPositionInfor() : String" style="text;align=left;verticalAlign=top;spacingLeft=4;spacingRight=4;overflow=hidden;rotatable=0;points=[[0,0.5],[1,0.5]];portConstraint=eastwest;rounded=0;shadow=0;html=0;fontSize=13;fontStyle=3" vertex="1" parent="2N-X7fBch58RBfS6cuom-54">
          <mxGeometry y="112" width="241" height="26" as="geometry" />
        </mxCell>
        <mxCell id="2N-X7fBch58RBfS6cuom-63" value="ProjectController" style="swimlane;fontStyle=1;align=center;verticalAlign=top;childLayout=stackLayout;horizontal=1;startSize=26;horizontalStack=0;resizeParent=1;resizeParentMax=0;resizeLast=0;collapsible=1;marginBottom=0;whiteSpace=wrap;html=1;fontSize=13;" vertex="1" parent="WIyWlLk6GJQsqaUBKTNV-1">
          <mxGeometry x="-637" y="-866" width="196" height="190" as="geometry" />
        </mxCell>
        <mxCell id="2N-X7fBch58RBfS6cuom-64" value="+ ListProject: List&amp;lt;Project&amp;gt;" style="text;strokeColor=none;fillColor=none;align=left;verticalAlign=top;spacingLeft=4;spacingRight=4;overflow=hidden;rotatable=0;points=[[0,0.5],[1,0.5]];portConstraint=eastwest;whiteSpace=wrap;html=1;fontSize=13;" vertex="1" parent="2N-X7fBch58RBfS6cuom-63">
          <mxGeometry y="26" width="196" height="26" as="geometry" />
        </mxCell>
        <mxCell id="2N-X7fBch58RBfS6cuom-65" value="" style="line;strokeWidth=1;fillColor=none;align=left;verticalAlign=middle;spacingTop=-1;spacingLeft=3;spacingRight=3;rotatable=0;labelPosition=right;points=[];portConstraint=eastwest;strokeColor=inherit;fontSize=13;" vertex="1" parent="2N-X7fBch58RBfS6cuom-63">
          <mxGeometry y="52" width="196" height="8" as="geometry" />
        </mxCell>
        <mxCell id="2N-X7fBch58RBfS6cuom-66" value="+ ViewListEmployee() : Void" style="text;strokeColor=none;fillColor=none;align=left;verticalAlign=top;spacingLeft=4;spacingRight=4;overflow=hidden;rotatable=0;points=[[0,0.5],[1,0.5]];portConstraint=eastwest;whiteSpace=wrap;html=1;fontSize=13;" vertex="1" parent="2N-X7fBch58RBfS6cuom-63">
          <mxGeometry y="60" width="196" height="26" as="geometry" />
        </mxCell>
        <mxCell id="2N-X7fBch58RBfS6cuom-70" value="+ AddProject() : Void" style="text;strokeColor=none;fillColor=none;align=left;verticalAlign=top;spacingLeft=4;spacingRight=4;overflow=hidden;rotatable=0;points=[[0,0.5],[1,0.5]];portConstraint=eastwest;whiteSpace=wrap;html=1;fontSize=13;" vertex="1" parent="2N-X7fBch58RBfS6cuom-63">
          <mxGeometry y="86" width="196" height="26" as="geometry" />
        </mxCell>
        <mxCell id="2N-X7fBch58RBfS6cuom-71" value="+EditProject() : Void" style="text;strokeColor=none;fillColor=none;align=left;verticalAlign=top;spacingLeft=4;spacingRight=4;overflow=hidden;rotatable=0;points=[[0,0.5],[1,0.5]];portConstraint=eastwest;whiteSpace=wrap;html=1;fontSize=13;" vertex="1" parent="2N-X7fBch58RBfS6cuom-63">
          <mxGeometry y="112" width="196" height="26" as="geometry" />
        </mxCell>
        <mxCell id="2N-X7fBch58RBfS6cuom-72" value="+DeleteProject() : Void" style="text;strokeColor=none;fillColor=none;align=left;verticalAlign=top;spacingLeft=4;spacingRight=4;overflow=hidden;rotatable=0;points=[[0,0.5],[1,0.5]];portConstraint=eastwest;whiteSpace=wrap;html=1;fontSize=13;" vertex="1" parent="2N-X7fBch58RBfS6cuom-63">
          <mxGeometry y="138" width="196" height="26" as="geometry" />
        </mxCell>
        <mxCell id="nPpdYYNUiPZGZsYf6FRK-149" value="+ SetStatus() : void" style="text;strokeColor=none;fillColor=none;align=left;verticalAlign=top;spacingLeft=4;spacingRight=4;overflow=hidden;rotatable=0;points=[[0,0.5],[1,0.5]];portConstraint=eastwest;whiteSpace=wrap;html=1;fontSize=13;" vertex="1" parent="2N-X7fBch58RBfS6cuom-63">
          <mxGeometry y="164" width="196" height="26" as="geometry" />
        </mxCell>
        <mxCell id="2N-X7fBch58RBfS6cuom-80" style="edgeStyle=orthogonalEdgeStyle;rounded=0;orthogonalLoop=1;jettySize=auto;html=1;startSize=9;endArrow=diamond;endFill=1;endSize=9;fontSize=13;" edge="1" parent="WIyWlLk6GJQsqaUBKTNV-1" source="nPpdYYNUiPZGZsYf6FRK-144" target="zkfFHV4jXpPFQw0GAbJ--0">
          <mxGeometry relative="1" as="geometry">
            <Array as="points">
              <mxPoint x="-79" y="-584" />
              <mxPoint x="-79" y="-584" />
            </Array>
          </mxGeometry>
        </mxCell>
      </root>
    </mxGraphModel>
  </diagram>
</mxfile>
